<svg xmlns="http://www.w3.org/2000/svg" viewBox="0 0 32 32" width="32" height="32">
  <circle cx="16" cy="16" r="16" fill="#f7931a"/>
  <path d="M23.189 14.02c.314-2.096-1.283-3.223-3.465-3.975l.708-2.84-1.728-.43-.69 2.765c-.454-.114-.92-.22-1.385-.326l.695-2.783L15.596 6l-.708 2.839c-.376-.086-.745-.17-1.104-.26l.002-.009-2.384-.595-.46 1.846s1.283.294 1.256.312c.7.175.825.638.804 1.006l-1.804 7.235c.054.013.124.033.204.062-.067-.016-.138-.035-.212-.054l-1.287 5.164c-.092.23-.325.301-.657.214.014.021.1.025.1.025l-.696 1.735c1.287.321 2.53.631 3.752.93-.854.203-1.72.41-2.592.62l-.46 1.846 1.728.43.708-2.84c.472.127.93.245 1.378.357l-.702 2.813 1.728.43.708-2.827c2.948.558 5.164.333 6.097-2.333.752-2.146-.037-3.385-2.03-4.192 1.44-.332 2.527-1.278 2.817-3.228zm-3.95 5.538c-.533 2.147-4.148.986-5.32.695l.95-3.805c1.172.293 4.929.872 4.37 3.11zm.535-5.569c-.487 1.953-3.495.96-4.47.717l.86-3.45c.975.243 4.118.696 3.61 2.733z" fill="white"/>
</svg> 